HIERARCHY
ROOT Hips
{
	OFFSET 0.000000 0.000000 0.000000
	CHANNELS 6 Xposition Yposition Zposition Xrotation Yrotation Zrotation
	JOINT LeftUpLeg_virtual
	{
		OFFSET 0.000000 0.000000 0.000000
		CHANNELS 3 Xrotation Yrotation Zrotation
		JOINT LeftUpLeg
		{
			OFFSET 13.026900 -6.336304 -1.092800
			CHANNELS 3 Xrotation Yrotation Zrotation
			JOINT LeftLeg
			{
				OFFSET 0.524474 -46.096886 9.782700
				CHANNELS 3 Xrotation Yrotation Zrotation
				JOINT LeftFoot
				{
					OFFSET -0.524474 -53.427422 -12.948200
					CHANNELS 3 Xrotation Yrotation Zrotation
					JOINT LeftToeBase
					{
						OFFSET 0.192200 -14.009700 16.364100
						CHANNELS 3 Xrotation Yrotation Zrotation
						JOINT LeftToe_End
						{
							OFFSET -1.784700 -0.561700 9.474800
							CHANNELS 3 Xrotation Yrotation Zrotation
							End Site
							{
								OFFSET 0 0 0
							}
						}
					}
				}
			}
		}
	}
	JOINT RightUpLeg_virtual
	{
		OFFSET 0.000000 0.000000 0.000000
		CHANNELS 3 Xrotation Yrotation Zrotation
		JOINT RightUpLeg
		{
			OFFSET -12.883000 -6.336304 -1.092800
			CHANNELS 3 Xrotation Yrotation Zrotation
			JOINT RightLeg
			{
				OFFSET -0.524587 -46.096825 9.782800
				CHANNELS 3 Xrotation Yrotation Zrotation
				JOINT RightFoot
				{
					OFFSET 0.524587 -53.427383 -12.948300
					CHANNELS 3 Xrotation Yrotation Zrotation
					JOINT RightToeBase
					{
						OFFSET -0.192200 -14.009700 16.364100
						CHANNELS 3 Xrotation Yrotation Zrotation
						JOINT RightToe_End
						{
							OFFSET 1.784700 -0.561700 9.474800
							CHANNELS 3 Xrotation Yrotation Zrotation
							End Site
							{
								OFFSET 0 0 0
							}
						}
					}
				}
			}
		}
	}
	JOINT Spine_virtual
	{
		OFFSET 0.000000 0.000000 0.000000
		CHANNELS 3 Xrotation Yrotation Zrotation
		JOINT Spine
		{
			OFFSET 0.072000 7.257294 -0.789700
			CHANNELS 3 Xrotation Yrotation Zrotation
			JOINT Spine1
			{
				OFFSET 0.000000 12.508769 -0.658067
				CHANNELS 3 Xrotation Yrotation Zrotation
				JOINT Spine1_split
				{
					OFFSET 0.000000 12.508769 -0.658067
					CHANNELS 3 Xrotation Yrotation Zrotation
					JOINT Spine2
					{
						OFFSET 0.000000 12.508769 -0.658067
						CHANNELS 3 Xrotation Yrotation Zrotation
						JOINT Neck_virtual
						{
							OFFSET 0.000000 0.000000 0.000000
							CHANNELS 3 Xrotation Yrotation Zrotation
							JOINT Neck
							{
								OFFSET 0.000000 14.033295 7.520400
								CHANNELS 3 Xrotation Yrotation Zrotation
								JOINT Head
								{
									OFFSET 0.000000 8.198502 5.703100
									CHANNELS 3 Xrotation Yrotation Zrotation
									JOINT HeadTop_End
									{
										OFFSET 0.000000 17.760803 13.332701
										CHANNELS 3 Xrotation Yrotation Zrotation
										End Site
										{
											OFFSET 0 0 0
										}
									}
								}
							}
						}
						JOINT LeftShoulder_virtual
						{
							OFFSET 0.000000 0.000000 0.000000
							CHANNELS 3 Xrotation Yrotation Zrotation
							JOINT LeftShoulder
							{
								OFFSET 6.292450 5.785301 -0.669000
								CHANNELS 3 Xrotation Yrotation Zrotation
								JOINT LeftShoulder_split
								{
									OFFSET 6.292450 5.785301 -0.669000
									CHANNELS 3 Xrotation Yrotation Zrotation
									JOINT LeftArm
									{
										OFFSET 13.907140 -6.093903 1.965100
										CHANNELS 3 Xrotation Yrotation Zrotation
										JOINT LeftForeArm
										{
											OFFSET 34.140198 0.000000 0.000000
											CHANNELS 3 Xrotation Yrotation Zrotation
											JOINT LeftHand
											{
												OFFSET 40.960209 0.000000 0.000000
												CHANNELS 3 Xrotation Yrotation Zrotation
												End Site
												{
													OFFSET 0 0 0
												}
											}
										}
									}
								}
							}
						}
						JOINT RightShoulder_virtual
						{
							OFFSET 0.000000 0.000000 0.000000
							CHANNELS 3 Xrotation Yrotation Zrotation
							JOINT RightShoulder
							{
								OFFSET -6.292450 5.785301 -0.669000
								CHANNELS 3 Xrotation Yrotation Zrotation
								JOINT RightShoulder_split
								{
									OFFSET -6.292450 5.785301 -0.669000
									CHANNELS 3 Xrotation Yrotation Zrotation
									JOINT RightArm
									{
										OFFSET -13.907140 -6.093903 1.965100
										CHANNELS 3 Xrotation Yrotation Zrotation
										JOINT RightForeArm
										{
											OFFSET -34.140198 0.000000 0.000000
											CHANNELS 3 Xrotation Yrotation Zrotation
											JOINT RightHand
											{
												OFFSET -40.960209 0.000000 0.000000
												CHANNELS 3 Xrotation Yrotation Zrotation
												End Site
												{
													OFFSET 0 0 0
												}
											}
										}
									}
								}
							}
						}
					}
				}
			}
		}
	}
}
MOTION
Frames: 8
Frame Time: 0.03333333
-3.216603 115.650566 -6.436647 0.000000 0.000000 0.000000 -5.451776 -11.452685 -8.938612 -22.567983 27.135240 23.031712 20.254356 0.238846 -1.546166 -6.739974 0.894690 -9.116376 1.326087 -2.308696 0.791755 0.000000 0.000000 0.000000 -5.485452 -8.361544 -8.570495 -12.833102 -3.132582 -9.515151 14.064512 -12.869314 0.781677 3.156273 2.916277 12.509761 -10.729229 2.982861 -5.006898 0.000000 0.000000 0.000000 -9.315677 -7.237023 -9.325942 15.579914 14.230065 -4.723253 -7.464276 -1.005532 -4.527256 0.132280 -0.594730 0.232325 0.000000 0.000000 0.000000 -16.271182 4.668310 -3.567519 7.924408 45.502645 -20.727117 -70.331742 2.999360 -118.504492 0.000000 0.000000 0.000000 -22.665957 1.209796 -4.118642 3.197434 -9.323305 -13.827149 10.175597 -4.412237 -6.075571 -19.432788 -8.952527 -60.175046 4.454582 16.356606 5.889635 0.000000 0.000000 0.000000 -30.403764 0.213786 -0.406528 14.139956 -10.663839 39.885620 -4.920420 -13.870129 -12.133218 -10.797439 65.923176 93.222219 -84.472665 -50.230133 -55.819403 0.000000 0.000000 0.000000 
-3.077889 115.454712 -6.572153 0.000000 0.000000 0.000000 -5.505891 -11.398950 -8.851905 -22.861323 26.768621 23.100593 20.506509 0.196137 -1.597424 -6.352488 0.798332 -9.326170 1.341454 -2.277117 0.820891 0.000000 0.000000 0.000000 -5.463647 -8.111352 -8.536563 -12.935005 -3.163941 -9.394445 14.216588 -12.942112 0.801918 3.569276 2.657816 12.541878 -10.708222 3.030774 -4.970957 0.000000 0.000000 0.000000 -9.347190 -7.292810 -9.258683 15.677890 14.198382 -4.885471 -7.478087 -1.011593 -4.610415 0.166677 -0.558688 0.213870 0.000000 0.000000 0.000000 -16.396369 4.637189 -3.535343 7.524161 45.478354 -20.426181 -70.293056 2.760126 -118.577575 0.000000 0.000000 0.000000 -22.833316 1.242350 -4.128105 3.119002 -8.831372 -14.067150 10.116717 -4.836120 -5.932146 -19.431854 -9.143201 -59.908764 4.408701 16.406225 5.772580 0.000000 0.000000 0.000000 -30.488534 0.228425 -0.420933 14.020392 -10.839310 39.790035 -4.095583 -12.401989 -11.774562 -11.120268 65.777017 93.975016 -84.095468 -50.027225 -55.306562 0.000000 0.000000 0.000000 
-2.896416 115.235222 -6.713049 0.000000 0.000000 0.000000 -5.494165 -11.548078 -8.895062 -23.524182 26.468976 23.336055 21.118557 0.317165 -1.612209 -6.113908 0.762514 -9.073384 1.213532 -2.190929 0.711869 0.000000 0.000000 0.000000 -5.443193 -7.923191 -8.571876 -13.064904 -3.335107 -9.086895 14.350801 -13.009238 0.787884 4.092906 2.065362 12.478495 -10.908584 3.073838 -4.816999 0.000000 0.000000 0.000000 -9.456202 -7.276894 -9.277160 15.694477 14.119433 -5.137550 -7.450956 -0.985518 -4.661836 0.146351 -0.540508 0.195225 0.000000 0.000000 0.000000 -16.494685 4.621668 -3.475790 7.145347 45.373831 -20.042903 -70.367286 2.443701 -118.180332 0.000000 0.000000 0.000000 -22.922991 1.295677 -4.090214 3.094193 -8.495850 -14.148520 10.189443 -5.393561 -5.975495 -19.370184 -9.299175 -59.265326 4.486132 16.232590 5.539585 0.000000 0.000000 0.000000 -30.495562 0.269692 -0.418465 13.737121 -11.282138 39.695639 -3.143726 -11.055759 -11.373715 -11.474203 65.784666 94.693886 -83.662495 -49.863601 -54.736532 0.000000 0.000000 0.000000 
-2.705614 115.127731 -6.973032 0.000000 0.000000 0.000000 -5.358706 -11.927204 -9.065375 -24.470257 26.282300 23.622715 22.006875 0.523891 -1.585687 -5.998397 0.743601 -8.548603 1.086009 -2.051299 0.464048 0.000000 0.000000 0.000000 -5.348493 -7.771038 -8.655784 -13.101246 -3.550656 -8.583880 14.082779 -13.048659 0.615169 4.324923 1.140888 12.092475 -10.901827 3.106947 -4.593097 0.000000 0.000000 0.000000 -9.456619 -7.290833 -9.350889 15.546672 14.040087 -5.453068 -7.385531 -0.916113 -4.659497 0.073646 -0.502407 0.190145 0.000000 0.000000 0.000000 -16.528127 4.637443 -3.392988 6.768269 45.174892 -19.584680 -70.558101 2.068914 -117.320944 0.000000 0.000000 0.000000 -22.912416 1.383042 -4.003467 3.115106 -8.377323 -14.161012 10.364325 -6.071222 -6.064298 -19.315445 -9.526360 -58.373235 4.683461 15.862484 5.174481 0.000000 0.000000 0.000000 -30.403856 0.350471 -0.392367 13.320163 -11.939715 39.594928 -2.264684 -10.274970 -10.852953 -11.693660 65.866130 95.123696 -83.194948 -49.813061 -54.152987 0.000000 0.000000 0.000000 
-2.435336 115.201118 -7.388594 0.000000 0.000000 0.000000 -5.028877 -12.399963 -9.301953 -25.527499 26.211573 23.829738 22.975834 0.692656 -1.496338 -5.857373 0.655888 -8.031985 0.995185 -1.875816 0.132703 0.000000 0.000000 0.000000 -5.131091 -7.654375 -8.766925 -13.165752 -3.698498 -7.990267 13.421177 -12.982254 0.270748 4.348440 0.102703 11.351394 -10.429096 3.151464 -4.383781 0.000000 0.000000 0.000000 -9.231214 -7.383384 -9.412664 15.222946 14.002337 -5.816996 -7.292777 -0.801528 -4.605358 0.032306 -0.438570 0.188475 0.000000 0.000000 0.000000 -16.468686 4.688655 -3.289081 6.342976 44.880289 -19.044473 -70.842770 1.689631 -116.030762 0.000000 0.000000 0.000000 -22.811061 1.509897 -3.883593 3.161718 -8.457220 -14.195924 10.549070 -6.663149 -6.011211 -19.286683 -9.963913 -57.348140 4.999012 15.303792 4.669258 0.000000 0.000000 0.000000 -30.196270 0.477580 -0.342489 12.802598 -12.723571 39.469761 -1.491750 -10.121333 -10.101250 -11.494235 65.926994 94.956404 -82.689193 -49.952954 -53.583889 0.000000 0.000000 0.000000 
-2.011858 115.447952 -7.967859 0.000000 0.000000 0.000000 -4.499386 -12.775847 -9.522239 -26.542008 26.317527 23.839420 23.840594 0.763810 -1.355187 -5.629642 0.475245 -7.707666 0.873980 -1.696307 -0.188268 0.000000 0.000000 0.000000 -4.837941 -7.733692 -8.918205 -13.474745 -3.760306 -7.502958 12.675284 -12.731831 -0.116146 4.802192 -0.765662 10.616279 -9.845638 3.237014 -4.296286 0.000000 0.000000 0.000000 -8.788402 -7.564081 -9.457227 14.812788 14.028678 -6.217803 -7.184021 -0.648821 -4.518746 0.039456 -0.345070 0.187206 0.000000 0.000000 0.000000 -16.306228 4.768057 -3.159487 5.854633 44.513733 -18.418932 -71.202878 1.340014 -114.378177 0.000000 0.000000 0.000000 -22.644913 1.663531 -3.753254 3.216765 -8.623231 -14.321793 10.605048 -6.934864 -5.872325 -19.261975 -10.718864 -56.286175 5.392485 14.557476 4.021743 0.000000 0.000000 0.000000 -29.860955 0.650827 -0.282992 12.199701 -13.501156 39.295253 -0.885087 -10.166205 -9.218019 -10.720108 65.885248 94.030149 -82.122820 -50.356471 -53.028441 0.000000 0.000000 0.000000 
-1.417997 115.818169 -8.554895 0.000000 0.000000 0.000000 -3.835993 -12.959045 -9.644829 -27.332146 26.691915 23.614554 24.402239 0.793924 -1.171129 -5.378364 0.279047 -7.592760 0.630272 -1.542502 -0.412158 0.000000 0.000000 0.000000 -4.535887 -8.105095 -9.086959 -14.271619 -3.716108 -7.206790 12.035547 -12.130463 -0.460595 5.978792 -1.218129 10.415000 -9.751558 3.370403 -4.429798 0.000000 0.000000 0.000000 -8.273889 -7.933564 -9.466596 14.511657 14.081991 -6.690852 -7.082718 -0.473184 -4.397458 0.059697 -0.264278 0.172997 0.000000 0.000000 0.000000 -16.046681 4.850712 -3.011432 5.253051 44.107770 -17.696776 -71.610900 1.036256 -112.462582 0.000000 0.000000 0.000000 -22.438350 1.825797 -3.627065 3.272717 -8.717611 -14.508915 10.454625 -6.940488 -5.790182 -19.180742 -11.816693 -55.274177 5.798189 13.655099 3.237634 0.000000 0.000000 0.000000 -29.419681 0.847283 -0.212782 11.534403 -14.154200 39.069365 -0.551975 -10.198764 -8.184044 -9.463121 65.692459 92.460483 -81.457833 -51.032807 -52.429912 0.000000 0.000000 0.000000 
-0.617656 116.133507 -9.240225 0.000000 0.000000 0.000000 -3.203850 -13.071788 -9.634549 -27.854838 27.357271 23.240514 24.622134 0.860540 -0.972328 -5.103686 0.174846 -7.665752 0.401759 -1.423182 -0.527719 0.000000 0.000000 0.000000 -4.201704 -8.894185 -9.234271 -15.623086 -3.526585 -7.152362 11.660487 -11.135375 -0.743485 7.577889 -1.145683 10.703053 -10.109284 3.539990 -4.821007 0.000000 0.000000 0.000000 -7.798226 -8.608157 -9.403632 14.504089 14.117079 -7.326926 -7.026686 -0.300875 -4.253274 0.071947 -0.200407 0.155044 0.000000 0.000000 0.000000 -15.733009 4.916021 -2.858446 4.497794 43.716950 -16.879136 -72.004401 0.810089 -110.382680 0.000000 0.000000 0.000000 -22.221911 1.980769 -3.507865 3.335630 -8.607240 -14.661991 10.319184 -6.769567 -5.745002 -18.945768 -13.172922 -54.316526 6.123398 12.577486 2.348428 0.000000 0.000000 0.000000 -28.925247 1.034388 -0.137124 10.835918 -14.625614 38.812796 -0.507118 -10.179246 -7.164056 -7.829368 65.385886 90.431022 -80.646093 -51.938606 -51.697955 0.000000 0.000000 0.000000 
